<svg height="32" viewBox="0 0 32 32" width="32" xmlns="http://www.w3.org/2000/svg"><path d="m17.9705341 14.2912625c.0331222 10.9357374.0496834 16.4036061.0496834 16.4036061 0 .4166741-.0496834.3195537-.4390022.3407898h-3.4157384c-.2334463 0-.2810006 0-.2810006-.248313 0 0 0-2.0225416 0-6.0676249-2.0702431 0-3.1053647 0-3.1053647 0-1.11535225 0-1.60882095-.165743-2.09640207-.6647486-.48758112-.4990057-.73878094-.9719729-.73878094-2.2368656 0 0 0-2.7014097 0-8.1042289-.01069732-.1146629.01009811-.1911665.06238629-.2295108.05228817-.0383444.15071865-.0575165.29529144-.0575165h2.47750528c.1322513-.0117567.217803.0074155.256655.0575165.038852.0501009.0551716.1485806.0489588.2954391v6.4944509c0 .7978435.0162622 1.0321646.2475588 1.317456.1541978.1901942.5243321.2902253 1.1104029.3000933h1.4417892v-20.50276489c-.0047054-.15148445.0104995-.24724561.0456146-.28728347.0351152-.04003786.1135772-.06207089.235386-.06609911h3.4551886c.1829195.00296052.2869607.02499355.3121239.06609911.0251631.04110556.0377447.13686672.0377447.28728347v10.05577519h1.5893346c.4133708.0360101.7271296-.0805885.9412763-.3497958.2141467-.2692072.32122-.6232161.32122-1.0620265v-4.68073917c-.0104487-.0893135.0020697-.15406045.0375552-.19424085s.1123683-.05411473.2306484-.04180299h2.4899456c.1610968-.00652263.2539685.00741169.2786151.04180299.0246466.03439129.0331258.100226.0254374.19750413.0377578 3.11831728.0566367 4.67747589.0566367 4.67747589 0 1.8395023-.0995753 2.5109122-.4930743 3.0958978-.393499.5849857-1.0318814 1.1623708-2.6257641 1.1623708 0 0-.9506103 0-2.8518309 0z" fill="#479e8a" fill-rule="evenodd"/></svg>